<svg width="100" height="100" viewBox="0 0 100 100" fill="none" xmlns="http://www.w3.org/2000/svg">
  <!-- Background Circle -->
  <circle cx="50" cy="50" r="48" fill="#1F2937" stroke="#374151" stroke-width="2"/>
  
  <!-- Letter P Design -->
  <path d="M25 25 L25 75 L35 75 L35 55 L55 55 C65 55 70 50 70 40 C70 30 65 25 55 25 L25 25 Z M35 35 L55 35 C58 35 60 37 60 40 C60 43 58 45 55 45 L35 45 L35 35 Z" fill="white"/>
  
  <!-- Advertising Elements - Small rectangles representing ads/banners -->
  <rect x="72" y="20" width="6" height="12" rx="1" fill="#EF4444"/>
  <rect x="72" y="35" width="6" height="8" rx="1" fill="#F59E0B"/>
  <rect x="72" y="46" width="6" height="10" rx="1" fill="#10B981"/>
  
  <!-- Print/Design Elements - Small dots representing printing -->
  <circle cx="20" cy="20" r="2" fill="#EF4444"/>
  <circle cx="20" cy="28" r="2" fill="#F59E0B"/>
  <circle cx="20" cy="36" r="2" fill="#10B981"/>
  <circle cx="20" cy="44" r="2" fill="#3B82F6"/>
  
  <!-- Bottom accent line -->
  <rect x="25" y="80" width="50" height="2" rx="1" fill="#6B7280"/>
</svg>